<svg width="51" height="39" viewBox="0 0 51 39" fill="none" xmlns="http://www.w3.org/2000/svg">
<path d="M39.5 24.7C39.5 24.7 47.2 28 47.4 28.1C47.4 28.1 47.4 28.1 47.5 28.1C51.5 29.5 49.5 36.6 49.3 37.7H15.6C15.4 36.6 13.5 30.2 17.4 28.1C17.4 28.1 17.4 28.1 17.5 28.1C17.6 28 25.4 24.7 25.4 24.7M11.7 7.4V5.6C11.7 3 9.7 1 7.3 1C4.9 1 2.9 3.1 2.9 5.6V7.3M25.1 19.1C25.5 21.5 27.3 24.7 30.4 25.8C31.7 26.2 33 26.3 34.3 25.8C37.3 24.7 39.2 21.6 39.6 19.2C40 19.2 40.5 18.6 41.1 16.5C41.9 13.7 41.1 13.3 40.3 13.3C40.4 12.9 40.5 12.5 40.6 12.1C41.8 4.8 38.2 4.6 38.2 4.6C38.2 4.6 37.8 3.4 36.3 2.5C35.3 1.9 33.8 1.4 31.9 1.6C31.3 1.6 30.7 1.8 30.1 1.9C29.4 2.1 28.8 2.5 28.2 2.9C27.5 3.4 26.8 3.9 26.2 4.6C25.3 5.6 24.4 6.8 24.1 8.4C23.8 9.6 23.9 10.8 24.1 12.1C24.2 12.5 24.3 12.9 24.4 13.3C23.7 13.2 22.9 13.7 23.6 16.5C24.2 18.5 24.7 19 25.1 19.1ZM12.7 19.9H2C1.4 19.9 1 19.5 1 18.9V10.7C1 10.1 1.4 9.7 2 9.7H12.7C13.3 9.7 13.7 10.1 13.7 10.7V18.9C13.7 19.5 13.2 19.9 12.7 19.9Z" stroke="#b6945e" stroke-width="1.5" stroke-miterlimit="10" stroke-linecap="round" stroke-linejoin="round"/>
</svg>
