<svg width="38" height="40" viewBox="0 0 38 40" fill="none" xmlns="http://www.w3.org/2000/svg">
<path d="M13.6942 10.9948V3.67188C13.6942 2.1875 14.8843 1 16.3719 1H30.2562C31.7438 1 32.9339 2.1875 32.9339 3.67188V5.15625M33.0331 30.3906V30.9844C33.0331 32.4688 31.843 33.6563 30.3554 33.6563H16.5702C17.0661 31.4792 18.0579 24.9479 14.8843 21.8802C14.8843 21.8802 17.9587 14.9531 14.8843 11.8854C11.8099 8.81771 12.0083 13.7656 11.1157 15.8438C10.2231 17.9219 9.33058 20 9.33058 26.6302L6.65289 29.5M7.64463 39L1 32.4688L5.46281 28.4115L15.7769 39L17.7603 37.0208C17.7603 37.0208 18.8512 37.0208 21.9256 37.0208C25 37.0208 27.0826 33.7552 27.0826 33.7552M36.7025 14.7552L33.9256 17.526C33.5289 17.9219 32.9339 17.9219 32.5372 17.526L31.3471 16.3385C30.9504 15.9427 30.9504 15.349 31.3471 14.9531L34.124 12.1823C34.5207 11.7865 35.1157 11.7865 35.5124 12.1823L36.7025 13.3698C37.0992 13.6667 37.0992 14.3594 36.7025 14.7552ZM36.7025 25.1458L33.9256 27.9167C33.5289 28.3125 32.9339 28.3125 32.5372 27.9167L31.3471 26.7292C30.9504 26.3333 30.9504 25.7396 31.3471 25.3437L34.124 22.5729C34.5207 22.1771 35.1157 22.1771 35.5124 22.5729L36.7025 23.7604C37.0992 24.0573 37.0992 24.75 36.7025 25.1458ZM36.7025 19.901L33.9256 22.6719C33.5289 23.0677 32.9339 23.0677 32.5372 22.6719L31.3471 21.4844C30.9504 21.0885 30.9504 20.4948 31.3471 20.099L34.124 17.3281C34.5207 16.9323 35.1157 16.9323 35.5124 17.3281L36.7025 18.5156C37.0992 18.9115 37.0992 19.5052 36.7025 19.901ZM36.7025 9.51042L33.9256 12.2813C33.5289 12.6771 32.9339 12.6771 32.5372 12.2813L31.3471 11.0938C30.9504 10.6979 30.9504 10.1042 31.3471 9.70833L34.124 6.9375C34.5207 6.54167 35.1157 6.54167 35.5124 6.9375L36.7025 8.125C37.0992 8.52083 37.0992 9.11458 36.7025 9.51042Z" stroke="white" stroke-width="1.5" stroke-miterlimit="10" stroke-linecap="round" stroke-linejoin="round"/>
</svg>
