<svg width="34" height="34" viewBox="0 0 34 34" fill="none" xmlns="http://www.w3.org/2000/svg">
<path d="M28.3823 9.46348L30.0025 7.85139C30.1646 7.69018 30.1646 7.36776 30.0025 7.12594L27.0051 4.22418C26.843 4.06297 26.519 4.06297 26.276 4.22418L24.6557 5.83627L24.2506 5.59446C22.9544 4.78841 21.5772 4.22418 20.2 3.90176L19.7139 3.82116V1.48363C19.7139 1.24181 19.4709 1 19.2278 1H15.0962C14.8532 1 14.6101 1.24181 14.6101 1.48363V3.82116L14.1241 3.90176C12.6658 4.22418 11.2886 4.78841 10.0734 5.59446L9.50633 5.83627L7.88608 4.22418C7.72405 4.06297 7.4 4.06297 7.15696 4.22418L4.24051 7.12594C4.07848 7.36776 4.07848 7.69018 4.24051 7.85139L5.86076 9.46348L5.61772 9.8665C4.80759 11.1562 4.24051 12.5264 3.91646 13.8967L3.83544 14.3804H1.48608C1.24304 14.461 1 14.7028 1 14.9446V19.0554C1 19.2972 1.24304 19.539 1.48608 19.539H3.18734C3.59241 21.3929 4.48354 23.0856 5.77975 24.4559L5.86076 24.5365L4.24051 26.1486C4.07848 26.3098 4.07848 26.6322 4.24051 26.8741L7.15696 29.7758C7.31899 29.937 7.64304 29.937 7.88608 29.7758L9.50633 28.1637L9.91139 28.4055C11.2076 29.2116 12.5848 29.7758 13.962 30.0982L14.4481 30.1788V32.5164C14.4481 32.7582 14.6911 33 14.9342 33H19.0658C19.3089 33 19.5519 32.7582 19.5519 32.5164V30.1788L20.038 30.0982C21.4962 29.7758 22.8734 29.2116 24.0886 28.4055L24.4937 28.1637L26.1139 29.7758C26.276 29.937 26.6 29.937 26.843 29.7758L29.7595 26.8741C29.9215 26.7128 29.9215 26.3904 29.7595 26.1486L28.1392 24.5365L28.3823 24.1335C29.1924 22.9244 29.7595 21.5542 30.0835 20.1033L30.1646 19.6196H32.5139C32.757 19.6196 33 19.3778 33 19.136V15.0252C33 14.7834 32.757 14.5416 32.5139 14.5416L30.9747 14.461L30.8937 14.2997C30.4886 12.4458 29.5975 10.8338 28.3823 9.46348Z" stroke="#D5D8D5" stroke-width="2" stroke-miterlimit="10" stroke-linecap="square"/>
<path d="M17.1215 24.2947C21.1483 24.2947 24.4127 21.0468 24.4127 17.0403C24.4127 13.0338 21.1483 9.78589 17.1215 9.78589C13.0947 9.78589 9.83038 13.0338 9.83038 17.0403C9.83038 21.0468 13.0947 24.2947 17.1215 24.2947Z" stroke="#D5D8D5" stroke-width="2" stroke-miterlimit="10" stroke-linecap="square"/>
</svg>
