<svg width="27" height="36" viewBox="0 0 27 36" fill="none" xmlns="http://www.w3.org/2000/svg">
<path d="M18.1521 1L18.8636 0.297343L18.57 0H18.1521V1ZM1 1V0H0V1H1ZM1 35H0V36H1V35ZM26 35V36H27V35H26ZM26 8.94699H27V8.53644L26.7115 8.24433L26 8.94699ZM17.9094 8.94699H16.9094V9.94699H17.9094V8.94699ZM6.82524 12.6988H5.82524V14.6988H6.82524V12.6988ZM20.1748 14.6988H21.1748V12.6988H20.1748V14.6988ZM6.82524 17.6145H5.82524V19.6145H6.82524V17.6145ZM20.1748 19.6145H21.1748V17.6145H20.1748V19.6145ZM6.82524 22.5301H5.82524V24.5301H6.82524V22.5301ZM20.1748 24.5301H21.1748V22.5301H20.1748V24.5301ZM6.82524 27.4458H5.82524V29.4458H6.82524V27.4458ZM12.8932 29.4458H13.8932V27.4458H12.8932V29.4458ZM18.1521 0H1V2H18.1521V0ZM0 1V35H2V1H0ZM1 36H26V34H1V36ZM27 35V8.94699H25V35H27ZM26.7115 8.24433L18.8636 0.297343L17.4406 1.70266L25.2885 9.64964L26.7115 8.24433ZM16.9094 1V8.94699H18.9094V1H16.9094ZM17.9094 9.94699H25.7573V7.94699H17.9094V9.94699ZM6.82524 14.6988H20.1748V12.6988H6.82524V14.6988ZM6.82524 19.6145H20.1748V17.6145H6.82524V19.6145ZM6.82524 24.5301H20.1748V22.5301H6.82524V24.5301ZM6.82524 29.4458H12.8932V27.4458H6.82524V29.4458Z" fill="#D5D8D5"/>
</svg>
