<svg xmlns="http://www.w3.org/2000/svg" width="130" height="70" viewBox="0 0 130 70"><g><g><g/><g><path fill="#1ab05d" d="M19.791 3.133C15.732-.907 9.44.103 9.44.103l13.396 13.333c-.102 0 .913-6.364-3.045-10.303z"/></g><g><path fill="#b6945e" d="M22.729 13.433L9.332.1s-1.015 6.364 3.044 10.303c3.958 4.04 10.351 3.03 10.351 3.03z"/></g><g><path fill="#b6945e" d="M44.15 61.916h5.582c-4.77 4.95-11.468 7.98-18.876 7.98-9.844 0-18.369-5.253-22.936-13.132l2.233-3.737c3.552 7.777 11.468 13.232 20.703 13.232 4.972 0 9.54-1.515 13.294-4.242zM29.638 17.37l2.131 3.636h-.812c-12.482 0-22.732 10.101-22.732 22.627v.606L5.18 49.49c-.507-1.919-.71-3.838-.71-5.858 0-14.142 11.163-25.657 25.168-26.263zm24.66 38.485h-4.262c2.334-3.535 3.653-7.677 3.653-12.222 0-9.293-5.683-17.374-13.801-20.808l-2.74-4.748c11.569 2.828 20.195 13.131 20.195 25.556 0 4.444-1.117 8.585-3.045 12.222z"/></g><g><path fill="#1ab05d" d="M18.064 60.811c-1.42-1.11-2.74-2.323-3.856-3.636H24.66v3.636h.102zm6.698-3.636v3.636h35.823l-3.957-6.869-1.523 3.132H24.66v.1zm27.502-10.707c-.203 1.717-.71 3.434-1.32 5.05l-8.93-15.252-11.772-20.202c-1.522 0-3.044.202-4.567.505l4.567-7.879 16.034 27.576zM18.47 36.367L6.393 57.175c.305.707 1.421 2.02 2.639 3.636H0l14.208-24.545 6.9-11.717c1.624-.91 3.45-1.515 5.38-1.92z"/></g><g/><g><path fill="#b6945e" d="M75.808 61.416H71.85l7.205-19.596h5.074l6.8 19.596H86.97l-1.522-4.343H77.33zm2.841-7.98h5.582l-2.74-7.778z"/></g><g><path fill="#1ab05d" d="M113.353 47.174l5.075 13.636h2.841l5.074-14.344v14.95h3.654V41.82h-5.988l-4.262 12.02-4.465-12.02H109.7v19.596h3.653z"/></g><g><path fill="#b6945e" d="M96.409 61.416h3.755v-15.96h6.19V41.82H90.32v3.636h6.089z"/></g></g></g></svg>