<svg width="120" height="78" viewBox="0 0 120 78" fill="none" xmlns="http://www.w3.org/2000/svg">
<g clip-path="url(#clip0)">
<path fill-rule="evenodd" clip-rule="evenodd" d="M46.5416 19.7412C46.2743 19.8571 46.007 19.973 45.7398 20.0502C45.7016 20.0502 45.6634 20.0502 45.6634 20.0502C45.6252 20.0116 45.6252 20.0116 45.6252 19.973C46.007 17.501 47.6106 14.7973 48.9851 13.0206C50.5123 11.0508 51.3523 11.5143 51.3141 12.5571C51.3141 13.9476 49.6342 17.81 46.5416 19.7412ZM5.30707 26.5778C5.03981 18.5825 9.04872 12.8275 15.5775 8.46294C15.6157 8.42432 15.6539 8.42432 15.6921 8.46294C15.7302 8.50156 15.7302 8.54019 15.7302 8.57881C13.134 15.7629 9.35416 24.2603 10.6905 31.9079C11.1868 34.6502 13.8594 38.8989 17.1429 36.6973C20.8082 34.1868 25.3516 26.3846 25.428 23.9127C25.4662 22.4063 24.7789 20.7069 22.9845 20.2047C22.1445 19.973 21.1136 20.1275 20.1209 20.1661C20.0828 20.1661 20.0446 20.1275 20.0446 20.1275C20.0446 20.0889 20.0446 20.0502 20.0828 20.0116C23.7099 16.9217 30.3914 11.8619 31.7277 6.4931C33.6749 -1.65664 26.4588 -0.613779 21.3427 1.54918C12.2177 5.37299 1.48906 13.4455 0.114578 21.9428C-0.381763 25.11 0.610919 27.8524 5.03981 26.964C5.19253 26.9254 5.34525 26.7709 5.30707 26.5778ZM14.4321 24.5307C14.4321 24.492 14.4321 24.492 14.4703 24.492C15.8448 23.3719 22.1063 19.7412 20.9227 23.6423C20.1973 26.037 17.0665 30.4016 16.6466 30.9423C15.1957 32.8735 14.4321 33.9936 13.9358 31.5603C13.4776 29.3201 13.9358 26.964 14.4321 24.5307ZM21.2663 5.29575C23.0226 3.98252 27.1843 1.8968 28.1006 2.97828C30.2387 5.41162 18.9755 15.4926 16.4175 17.0375C16.3793 17.0762 16.3411 17.0375 16.3029 17.0375C16.2648 16.9989 16.2648 16.9603 16.2648 16.9217C17.6392 12.982 18.7465 9.5058 21.2663 5.29575ZM29.5132 12.0936C26.9552 22.8698 25.5807 31.5217 24.3971 42.2206C25.1225 43.1476 26.497 43.3407 27.6042 43.2249C27.6806 38.6672 28.406 33.4529 29.4369 28.1614C29.4369 28.1227 29.4751 28.0841 29.5132 28.0841C29.5514 28.0841 29.5896 28.0841 29.5896 28.1227C30.1623 28.9725 30.8496 29.5132 31.6132 30.054C34.2476 32.0238 35.9657 28.8566 36.9965 26.964C37.6838 25.6894 38.4474 24.183 39.0965 22.5995C39.0965 22.5608 39.1728 22.5222 39.211 22.5608C39.9364 22.7539 40.6237 22.8698 41.3109 22.9471C41.3491 22.9471 41.3873 22.9857 41.3873 23.0243C41.6163 25.1487 43.2963 28.2772 45.358 28.8566C47.4579 29.4746 49.8632 26.9254 51.2377 24.4534C51.2377 24.4148 51.2759 24.4148 51.3141 24.4148C51.3523 24.4148 51.3904 24.4534 51.3904 24.4534C52.1159 26.1915 53.414 27.8524 55.0557 26.1915C56.812 24.3762 58.7592 20.3206 59.5228 18.737C59.5228 18.6984 59.561 18.6984 59.6373 18.6984C59.6755 18.6984 59.7137 18.737 59.7137 18.7756C60.4391 28.6248 63.2645 24.5307 66.2807 18.8915C66.2807 18.8529 66.3189 18.8529 66.357 18.8529C66.3952 18.8529 66.4334 18.8915 66.4334 18.9301C69.1824 26.4619 72.4277 20.9386 74.7948 17.9259C74.833 17.8873 74.833 17.8873 74.8712 17.8873C74.9094 17.8873 74.9476 17.9259 74.9476 17.9259C78.002 24.7624 82.049 17.8873 83.4617 14.1793C83.4617 14.1407 83.4999 14.1021 83.5762 14.1407C83.6144 14.1407 83.6526 14.1793 83.6526 14.218C83.6908 24.9942 92.5868 20.0116 94.8394 14.0635C95.6793 11.8619 95.5648 9.5058 93.7703 7.7677C93.694 7.69045 93.6176 7.69045 93.5031 7.69045C93.4267 7.72908 93.3504 7.80633 93.3122 7.88358C92.8158 10.0465 89.6087 18.737 87.3943 18.1577C85.0653 17.5397 88.8069 2.47617 89.3796 0.6222C89.4178 0.506327 89.3796 0.390454 89.3033 0.274581C89.2269 0.158708 89.1124 0.120083 88.9596 0.158708C88.196 0.274581 87.5088 0.467702 86.707 0.583575C86.5925 0.583575 86.4779 0.660824 86.4398 0.776697C86.0198 1.58781 85.7143 2.32167 85.5234 3.09416C85.5234 3.13278 85.4853 3.17141 85.4471 3.17141C85.4089 3.17141 85.3707 3.13278 85.3707 3.09416C84.9507 1.31744 84.0344 0.274581 81.2854 1.00844C77.6202 1.8968 77.0856 6.87934 76.5893 10.0465C76.5129 12.6344 79.071 14.3338 81.6672 12.0164C81.7054 11.9778 81.7436 11.9778 81.7818 12.0164C81.82 12.055 81.82 12.0936 81.82 12.1323C81.2473 13.5227 79.1474 19.8571 77.8874 16.0333C77.6583 15.3381 77.4293 14.2566 77.2765 13.4069C77.2384 13.291 77.162 13.1751 77.0475 13.1365C76.9329 13.0979 76.7802 13.0979 76.7038 13.2137C75.4057 14.2952 73.8785 16.1106 72.5422 17.3852C68.3042 21.3248 73.1149 4.94813 73.344 3.86664C73.3822 3.71215 73.344 3.55765 73.2295 3.44178C73.1149 3.3259 72.9622 3.28728 72.8095 3.3259C71.8168 3.55765 70.9005 3.7894 69.9841 4.02114C69.8314 4.05977 69.7169 4.17564 69.6787 4.29151C68.9915 6.18411 67.617 10.9349 66.3952 13.8317C63.8753 19.8571 62.4627 21.7111 63.8371 14.1407C64.2953 11.5529 64.7153 9.04231 65.5553 6.45448C65.6698 6.10686 66.0134 5.29575 65.288 5.37299C64.2189 5.48887 62.959 5.87511 61.89 6.3386C61.7754 6.37723 61.6991 6.45448 61.6609 6.57035C60.3628 9.38993 54.9794 27.1571 54.0249 18.6984C54.0249 18.5825 53.9103 18.4666 53.7958 18.4666C53.5667 18.428 53.2994 18.5825 53.0704 18.737C52.0395 19.7799 48.2597 26.6936 46.5797 25.9211C45.5871 25.4963 45.358 23.5264 45.5871 22.5222C45.5871 22.4836 45.6252 22.4836 45.6634 22.445C51.3141 20.7069 56.6211 13.9476 52.994 11.2825C52.3831 9.3513 51.6195 9.31268 50.0923 8.73331C46.8088 8.15395 42.189 14.4883 41.54 20.5137C41.54 20.5524 41.5018 20.591 41.4254 20.591C40.9673 20.5524 40.5473 20.4751 40.1655 20.3592C40.1273 20.3592 40.1273 20.3206 40.1273 20.3206C40.1273 20.282 40.1273 20.282 40.1273 20.2434C41.6545 15.8016 41.9218 11.437 37.8365 11.128C36.0039 10.9735 33.6749 14.4111 32.1095 17.3465C32.0713 17.3852 32.0331 17.4238 31.995 17.3852C31.9568 17.3852 31.9186 17.3079 31.9568 17.2693C32.1095 16.5741 32.3004 15.9174 32.4531 15.2608C32.644 14.4111 32.5677 13.6 31.995 12.9434C31.4986 12.364 30.8877 11.9391 30.086 11.746C29.7423 11.7846 29.5514 11.9005 29.5132 12.0936ZM80.3309 9.85342C80.1782 9.3513 82.889 -0.88415 83.5762 4.17564C83.6526 9.00368 80.4073 11.6688 80.3309 9.85342ZM30.086 25.1873C30.4678 23.2947 34.2858 17.6169 35.4693 15.6857C36.7293 13.6386 37.9129 13.4841 36.3093 17.6942C34.8203 21.6338 31.8804 27.273 30.9259 26.346C30.5823 26.1529 30.315 25.6508 30.086 25.1873Z" fill="#D5D8D5"/>
<path fill-rule="evenodd" clip-rule="evenodd" d="M102.399 45.6971C104.919 42.6071 107.668 37.0838 109.959 32.2172C109.959 32.1785 109.959 32.1785 109.959 32.1399C108.202 28.6251 106.752 25.0717 105.988 23.5267C105.95 23.4494 105.912 23.3336 105.95 23.2563C105.988 23.1404 106.064 23.1018 106.141 23.0632C106.981 22.677 108.546 22.2521 109.539 22.8314C110.188 23.2177 110.913 25.0717 111.753 27.4277C111.753 27.4664 111.791 27.505 111.829 27.505C111.868 27.505 111.906 27.4664 111.906 27.4277C113.28 23.2563 113.7 20.4367 118.091 20.9775C118.206 20.9775 118.32 21.0547 118.358 21.1706C118.396 21.2865 118.396 21.4023 118.358 21.5182C118.167 21.8272 118.015 22.0976 117.824 22.4066C116.487 24.6082 114.998 28.123 113.357 31.8309C113.357 31.8695 113.357 31.8695 113.357 31.9082C114.617 35.2299 116.144 38.5129 118.053 40.0579C118.129 40.1351 118.206 40.2124 118.206 40.3669C118.206 40.4828 118.167 40.5986 118.053 40.6373C116.182 41.9119 113.891 39.2468 111.753 35.6161C111.753 35.5775 111.715 35.5775 111.677 35.5775C111.639 35.5775 111.6 35.6161 111.6 35.6161C109.042 40.9463 106.102 45.7357 102.743 46.2764C102.59 46.315 102.475 46.2378 102.399 46.1219C102.323 45.9674 102.284 45.8129 102.399 45.6971ZM17.4865 51.6066C19.9682 48.2076 25.7716 44.3452 32.3386 41.0235C32.4149 40.9849 32.4531 40.9849 32.5295 41.0235C32.5676 41.0621 32.6058 41.1394 32.6058 41.2166C32.3004 42.8775 31.9949 44.4611 31.6895 46.0061C30.7732 50.5251 30.6205 55.8553 27.5661 59.3314C26.3061 60.7992 24.2826 61.3785 22.679 60.3743C22.6026 60.3357 22.5263 60.3357 22.4499 60.3357C22.3736 60.3743 22.2972 60.4515 22.2972 60.5288C21.1136 65.1637 24.6262 67.6743 28.0624 67.0949C32.0713 66.3997 33.1785 61.3013 33.6749 57.7478C34.4766 51.9928 35.5457 45.6971 36.8056 39.015C36.8056 38.9378 36.8438 38.8992 36.9202 38.8992C37.8747 38.4743 38.8292 38.0881 39.7837 37.6632C39.86 37.6246 39.8982 37.6632 39.9746 37.7018C40.0128 37.7404 40.0509 37.8177 40.0509 37.8949C39.0201 42.9161 37.6838 50.332 37.5311 55.0828C37.4929 56.0484 38.6001 60.2971 39.7837 59.0997C40.5473 51.6838 42.1127 44.1135 43.7926 36.2341C43.7926 36.1568 43.8308 36.1182 43.9071 36.1182C48.6796 34.4187 52.994 33.3759 55.8193 33.3759C55.8957 33.3759 56.0102 33.3373 56.0484 33.26C56.0866 33.1828 56.1248 33.1055 56.0866 32.9896C54.6739 29.5135 46.4652 31.2902 37.8747 34.496C37.8365 34.5346 37.7601 34.496 37.722 34.496C37.6838 34.4574 37.6456 34.4187 37.6456 34.3801C37.5692 33.9553 37.3783 33.569 37.0729 33.2214C36.6147 32.7193 35.5457 32.1399 34.7821 31.9082C34.7057 31.8695 34.6294 31.9082 34.553 31.9468C34.4767 31.9854 34.4385 32.0627 34.4385 32.1399C34.1712 33.5304 33.9039 34.8436 33.6749 36.1182C33.6749 36.1955 33.6367 36.2341 33.5603 36.2341C25.008 39.8262 17.1047 44.1907 16.1884 45.6584C14.9666 47.5896 15.1957 50.1775 17.2574 51.7225C17.2574 51.7611 17.4102 51.7225 17.4865 51.6066ZM53.1849 39.1309C57.652 41.9119 52.3067 50.1775 47.4197 50.7955C47.3052 50.7955 47.267 50.9113 47.267 50.9886C47.3815 52.0314 47.7251 52.9584 48.3742 53.7309C48.4887 53.8854 48.6796 53.9627 48.8705 54.0013C49.0614 54.0013 49.2523 53.9627 49.4051 53.8082C52.2304 51.2203 55.1321 46.5468 57.5374 43.3023C58.4537 39.2082 59.2937 35.3457 59.79 32.2558C59.9428 31.2516 60.0573 30.5563 60.0573 29.8611C60.0573 29.7452 60.0955 29.668 60.1718 29.5907C60.2482 29.5135 60.3246 29.4748 60.4391 29.5135C62.3099 29.668 64.1808 30.8267 63.9135 32.9124C63.4935 34.6505 63.0354 36.4272 62.6154 38.1653C62.6154 38.2039 62.6154 38.2426 62.6536 38.2812C62.6917 38.2812 62.7299 38.2812 62.7681 38.2426C63.9899 35.9251 65.5171 33.5304 66.777 32.642C68.4187 31.5992 69.8696 32.9896 71.015 34.7277C73.0004 37.7791 71.4732 41.0621 70.0987 44.4997C68.5715 48.3235 66.5861 52.4563 63.6462 51.7225C62.2336 50.9886 61.0882 50.023 60.1337 48.9801C60.0955 48.9415 60.0955 48.9415 60.0573 48.9415C60.0191 48.9415 60.0191 48.9801 59.9809 49.0187C58.8737 54.1944 57.9574 59.4859 57.5756 65.0478C57.5756 65.241 57.3847 65.3955 57.1938 65.3955C55.3612 65.2796 53.7576 64.1595 53.834 62.1124C54.2921 58.0182 55.3612 52.7653 56.5447 47.5124C56.5447 47.4738 56.5447 47.4352 56.5066 47.3965C56.4684 47.3965 56.4302 47.3965 56.392 47.4352C54.5976 50.4865 52.574 53.4219 50.3977 55.778C47.916 58.1727 45.8543 56.9754 44.3653 54.3489C39.3637 45.6971 51.6959 31.4061 54.483 38.0494C54.5212 38.2039 54.483 38.3584 54.3303 38.3971C53.9485 38.5516 53.5667 38.7447 53.1849 38.9764C53.1467 38.9764 53.1467 39.015 53.1467 39.0537C53.1467 39.0923 53.1467 39.0923 53.1849 39.1309ZM47.9542 47.6669C47.8397 47.7055 47.7633 47.7055 47.687 47.6283C47.6106 47.551 47.5724 47.4738 47.6106 47.3579C48.2978 44.7701 49.7869 42.1436 51.5813 40.3283C51.6959 40.2124 51.8486 40.2124 51.9631 40.3283C53.7194 42.105 50.8559 46.3537 47.9542 47.6669ZM65.3643 37.2383C63.379 40.3669 62.7681 42.2981 61.2027 45.2722C60.5536 46.5082 60.2482 47.3193 62.0045 47.9759C63.5699 48.787 66.5097 42.3367 67.3879 38.3584C68.1897 34.6119 67.197 34.6119 65.3643 37.2383ZM73.0004 30.7494C73.9167 29.7066 74.833 29.05 76.2838 28.4706C76.322 28.4706 76.3602 28.4706 76.3984 28.5092C76.4366 28.5479 76.4366 28.5865 76.4366 28.6251C74.9094 32.7193 74.3367 36.8135 73.2676 41.0621C72.8476 43.4955 72.0459 47.4738 74.3748 49.2119C79.0328 52.6494 83.0417 45.3881 84.4544 41.9505C85.3325 39.2082 85.1034 35.9637 81.5527 35.6547C81.5145 35.6547 81.4763 35.6161 81.4763 35.5775C81.4763 35.5389 81.4763 35.5002 81.5145 35.4616C85.1798 33.1828 88.8069 22.677 82.3927 22.9859C82.4308 22.9473 82.4308 22.9087 82.469 22.8701C82.5454 22.7542 82.5454 22.5997 82.5072 22.4838C82.4308 22.368 82.3163 22.2907 82.1636 22.2907C80.6746 22.3293 79.4528 22.9087 78.6892 24.2992C76.9329 24.8399 69.8314 29.05 72.6567 30.7881C72.6949 30.9426 72.8858 30.9039 73.0004 30.7494ZM79.6437 29.8225C80.5218 26.6553 82.7363 24.6082 82.6599 28.7023C82.5836 30.8653 81.2473 34.0711 78.3837 35.732C78.3456 35.732 78.3074 35.732 78.2692 35.732C78.231 35.6934 78.231 35.6547 78.231 35.6161C78.7655 33.8008 79.1474 31.715 79.6437 29.8225ZM77.811 38.6674C78.7274 37.9722 79.3382 37.4701 80.9418 37.4701C83.5762 37.4701 77.5056 48.2076 76.4366 48.0531C75.7111 47.9759 76.5893 43.7272 77.811 38.6674ZM88.5396 27.1187C87.4706 33.0283 86.0198 37.1997 85.218 43.6886C85.5998 45.6971 88.5015 47.0103 90.5632 46.624C91.4413 46.5854 92.6631 45.6971 93.8467 44.3452C96.672 41.1394 99.4592 35.423 97.3974 32.6034C97.3593 32.5648 97.3593 32.5262 97.3974 32.4875C98.3138 31.7923 99.2682 30.9812 100.185 30.0542C100.223 30.0156 100.261 30.0156 100.299 30.0542C100.337 30.0542 100.337 30.1314 100.337 30.1701C99.6119 33.8394 98.8483 37.3542 98.0083 41.1008C97.512 43.3023 100.719 45.3881 102.628 43.9203C102.704 43.8817 102.704 43.7658 102.666 43.6886C100.91 40.2896 104.041 30.2473 104.804 26.4621C104.995 25.4965 104.613 24.5309 103.773 24.0674C103.239 23.7584 102.666 23.5653 102.055 23.4108C101.941 23.3722 101.826 23.4108 101.75 23.4494C101.635 23.5267 101.597 23.6039 101.559 23.7198V23.7584C98.4665 28.0457 94.7248 31.1357 90.9068 34.9981C90.8305 35.0754 90.7541 35.0754 90.6777 35.0367C90.6014 34.9981 90.5632 34.9209 90.5632 34.8436C91.0977 32.2558 92.5486 28.123 90.8305 27.3119C90.1814 27.0029 89.4941 26.8098 88.7305 26.8484C88.6924 26.8484 88.5778 26.9643 88.5396 27.1187ZM89.2651 40.56C90.1432 39.0923 91.1741 38.1267 92.3195 36.9293C94.4957 34.6891 95.0684 34.5732 93.7321 37.9336C93.274 39.0923 90.2959 44.3838 89.036 44.268C88.2342 44.1907 88.1579 42.414 89.2651 40.56Z" fill="#D5D8D5"/>
<path fill-rule="evenodd" clip-rule="evenodd" d="M61.6226 63.0393C81.7817 56.2028 98.5428 51.6065 119.58 49.1346C120.038 48.9028 120.267 48.5938 119.656 48.1303C97.5119 47.7055 82.5835 52.379 61.3935 58.443C61.0499 58.5589 60.7827 58.8293 60.7445 59.1769C60.5918 60.2198 60.3627 61.224 60.439 62.1896C60.4772 62.4986 60.5917 62.7303 60.859 62.8848C61.0499 63.078 61.3172 63.1166 61.6226 63.0393ZM33.6748 72.4251C33.5984 70.8415 33.9802 69.4896 34.4766 68.1764C34.7438 67.4811 35.2402 67.0176 35.8892 66.7859C41.7308 64.6616 45.5488 63.3097 51.3904 61.1854C51.5049 61.1467 51.6194 61.1467 51.734 61.224C51.8485 61.3012 51.9249 61.4171 51.8867 61.533C51.6194 62.6917 51.6194 63.9663 51.8867 65.2409C51.9249 65.3954 51.8103 65.5499 51.6576 65.6272C45.4724 68.0605 40.9672 69.6827 34.8584 72.5409C33.9421 73.0044 33.9421 73.3134 33.6748 72.4251Z" fill="#D5D8D5"/>
</g>
<defs>
<clipPath id="clip0">
<rect width="120" height="77" fill="white" transform="translate(0 0.00390625)"/>
</clipPath>
</defs>
</svg>
