<svg width="35" height="36" viewBox="0 0 35 36" fill="none" xmlns="http://www.w3.org/2000/svg">
<path d="M24.1748 22.7938C24.1748 22.7938 31.5099 25.8453 31.5905 25.9256C31.5905 25.9256 31.5905 25.9256 31.6711 25.9256C35.4596 27.2105 33.5251 33.956 33.3639 35H1.60517C1.44395 33.956 -0.40998 27.9332 3.29789 25.9256C3.29789 25.9256 3.29789 25.9256 3.37849 25.9256C3.53971 25.8453 10.7942 22.7938 10.7942 22.7938M10.633 17.4937C10.9554 19.8225 12.7288 22.7135 15.6306 23.7574C16.8397 24.1589 18.1294 24.1589 19.3384 23.7574C22.1597 22.7135 24.0136 19.8225 24.336 17.4937C24.739 17.4937 25.2227 16.9315 25.7869 15.0042C26.5124 12.3542 25.7063 11.9527 25.0615 12.033C25.2227 11.6315 25.3033 11.3103 25.3839 10.9087C26.5124 4.08287 23.1269 3.84196 23.1269 3.84196C23.1269 3.84196 22.5627 2.79801 21.1118 1.91466C20.1445 1.35253 18.7742 0.870705 17.0009 1.03131C16.4366 1.03131 15.8724 1.19192 15.3082 1.35253C14.6633 1.59344 14.0185 1.91466 13.4542 2.31618C12.8094 2.7177 12.1645 3.27983 11.6003 3.84196C10.7136 4.72531 9.90757 5.92987 9.58514 7.37535C9.26272 8.49961 9.34333 9.62387 9.58514 10.9087C9.66575 11.3103 9.74636 11.6315 9.90757 12.033C9.26272 11.9527 8.45666 12.3542 9.18211 15.0042C9.74636 16.9315 10.23 17.4937 10.633 17.4937Z" stroke="#D5D8D5" stroke-width="2" stroke-miterlimit="10"/>
</svg>
