<svg width="25" height="25" viewBox="0 0 25 25" fill="none" xmlns="http://www.w3.org/2000/svg">
<path d="M21.0414 15.6879C20.1199 14.7663 19.0307 14.7663 18.1092 15.6879C17.4389 16.3582 16.7687 17.0284 16.0985 17.6987C15.9309 17.8662 15.7633 17.95 15.512 17.7825C15.0931 17.5311 14.5904 17.3636 14.1715 17.1122C12.1608 15.8555 10.4852 14.2637 9.06099 12.4205C8.30698 11.4989 7.72052 10.5773 7.21785 9.48816C7.13407 9.23682 7.13407 9.15304 7.30163 8.98548C7.97186 8.31523 8.6421 7.64499 9.31233 6.97474C10.2339 6.05316 10.2339 4.96401 9.31233 3.95864C8.80965 3.45595 8.2232 2.86949 7.72052 2.36681C7.13407 1.78034 6.63139 1.27766 6.04494 0.691191C5.12337 -0.230397 4.03424 -0.230397 3.11266 0.691191C2.44243 1.36144 1.77219 2.03168 1.10196 2.70193C0.431727 3.37217 0.0966095 4.1262 0.0128303 4.96401C-0.070949 6.38828 0.264168 7.72877 0.766844 9.06926C1.7722 11.834 3.28022 14.1799 5.20715 16.442C7.72052 19.4581 10.7366 21.8039 14.2553 23.5633C15.8471 24.3174 17.5227 24.9038 19.2821 24.9876C20.5388 25.0714 21.5441 24.7363 22.4657 23.8147C23.0521 23.1444 23.7224 22.558 24.3088 21.9715C25.2304 21.0499 25.2304 19.877 24.3088 18.9554C23.2197 17.8662 22.1306 16.7771 21.0414 15.6879Z" fill="#1AB05D"/>
<path d="M18.75 2.08334L20.8333 4.16667" stroke="#1AB05D" stroke-width="2" stroke-miterlimit="10" stroke-linecap="round" stroke-linejoin="round"/>
</svg>
