<svg xmlns="http://www.w3.org/2000/svg" width="1921" height="512" viewBox="0 0 1921 512"><defs><linearGradient id="zt3ra" x1="961" x2="961" y1="-172.32" y2="386.72" gradientUnits="userSpaceOnUse"><stop offset="0" stop-color="#1ab05d"/><stop offset="1" stop-color="#1ab05d" stop-opacity="0"/></linearGradient><clipPath id="zt3rb"><path fill="#fff" d="M626.35 272.675a8.675 8.675 0 1 1-17.35 0 8.675 8.675 0 0 1 17.35 0z"/></clipPath></defs><g><g opacity=".25"><path fill="url(#zt3ra)" d="M338.11 169.218C187.311 169.218 64.77 399.105 1 511.15v340h1920v-850c-106.91 0-349.36 446.25-546.3 446.25-167.34 0-349.55-343.091-433.95-343.091-40.232 0-52.377 64.909-103.096 64.909-63.302 0-81.714-122.864-127.667-122.864-70.335 0-60.682 290.932-156.338 290.932-80.745 0-64.74-168.068-215.539-168.068z"/></g><g opacity=".5"/><g><path fill="#fff" d="M626.35 272.675a8.675 8.675 0 1 1-17.35 0 8.675 8.675 0 0 1 17.35 0z"/><path fill="none" stroke="#1ab05d" stroke-miterlimit="20" stroke-width="4" d="M626.35 272.675a8.675 8.675 0 1 1-17.35 0 8.675 8.675 0 0 1 17.35 0z" clip-path="url(&quot;#zt3rb&quot;)"/></g></g></svg>