<?xml version="1.0" encoding="UTF-8"?>
<svg id="SVGDoc" width="27" height="20" xmlns="http://www.w3.org/2000/svg" version="1.1" xmlns:xlink="http://www.w3.org/1999/xlink" xmlns:avocode="https://avocode.com/" viewBox="0 0 27 20"><defs><clipPath id="ClipPath1017"><path d="M0,11.5925h5.44828l-2.60537,8.4075h5.70115l3.29114,-8.4075v-11.5925h-11.8352zM15.1648,11.5925h5.4482l-2.6053,8.4075h5.7011l3.2912,-8.4075v-11.5925h-11.8352z" fill="#ffffff"></path></clipPath></defs><desc>Generated with Avocode.</desc><g><g opacity="0.2"><title>Vector</title><path d="M0,11.5925h5.44828l-2.60537,8.4075h5.70115l3.29114,-8.4075v-11.5925h-11.8352zM15.1648,11.5925h5.4482l-2.6053,8.4075h5.7011l3.2912,-8.4075v-11.5925h-11.8352z" fill="#ffffff" fill-opacity="1"></path><path d="M0,11.5925h5.44828l-2.60537,8.4075h5.70115l3.29114,-8.4075v-11.5925h-11.8352zM15.1648,11.5925h5.4482l-2.6053,8.4075h5.7011l3.2912,-8.4075v-11.5925h-11.8352z" fill-opacity="0" fill="#ffffff" stroke-linejoin="miter" stroke-linecap="butt" stroke-opacity="1" stroke="#141514" stroke-miterlimit="20" stroke-width="2" clip-path="url(&quot;#ClipPath1017&quot;)"></path></g></g></svg>