<svg width="151" height="77" viewBox="0 0 151 77" fill="none" xmlns="http://www.w3.org/2000/svg">
<g clip-path="url(#clip0)">
<path fill-rule="evenodd" clip-rule="evenodd" d="M71.2799 19.6206C70.9912 19.7358 70.7025 19.851 70.4138 19.9278C70.3725 19.9278 70.3313 19.9278 70.3313 19.9278C70.29 19.8894 70.29 19.8894 70.29 19.851C70.7025 17.3932 72.4348 14.705 73.9196 12.9384C75.5694 10.9798 76.4768 11.4407 76.4356 12.4776C76.4356 13.8601 74.6208 17.7004 71.2799 19.6206ZM26.735 26.418C26.4463 18.4685 30.777 12.7464 37.83 8.40679C37.8712 8.36838 37.9125 8.36838 37.9537 8.40679C37.9949 8.44519 37.9949 8.48359 37.9949 8.522C35.1903 15.6651 31.107 24.1138 32.5506 31.7177C33.0868 34.4444 35.9739 38.6688 39.521 36.4798C43.4806 33.9835 48.3888 26.226 48.4713 23.7682C48.5125 22.2705 47.7701 20.5807 45.8316 20.0815C44.9242 19.851 43.8105 20.0046 42.7382 20.0431C42.6969 20.0431 42.6557 20.0046 42.6557 20.0046C42.6557 19.9662 42.6557 19.9278 42.6969 19.8894C46.6152 16.8172 53.8331 11.7863 55.2767 6.44821C57.3802 -1.65493 49.5849 -0.618038 44.058 1.53256C34.2004 5.33451 22.6105 13.3608 21.1256 21.8096C20.5894 24.9587 21.6618 27.6854 26.4463 26.8021C26.6112 26.7637 26.7762 26.6101 26.735 26.418ZM36.5926 24.3826C36.5926 24.3442 36.5926 24.3442 36.6339 24.3442C38.1187 23.2305 44.8829 19.6206 43.6043 23.4994C42.8206 25.8804 39.4385 30.22 38.9848 30.7576C37.4175 32.6778 36.5926 33.7915 36.0564 31.3721C35.5615 29.1447 36.0564 26.8021 36.5926 24.3826ZM43.9755 5.2577C45.8728 3.95198 50.3685 1.87819 51.3584 2.95349C53.6682 5.37291 41.5008 15.3962 38.7374 16.9324C38.6961 16.9708 38.6549 16.9324 38.6136 16.9324C38.5724 16.894 38.5724 16.8556 38.5724 16.8172C40.0572 12.9 41.2533 9.44368 43.9755 5.2577ZM52.8845 12.0167C50.1211 22.7313 48.6362 31.3337 47.3576 41.9715C48.1413 42.8931 49.6261 43.0852 50.8222 42.9699C50.9047 38.4383 51.6884 33.2539 52.802 27.9926C52.802 27.9542 52.8433 27.9158 52.8845 27.9158C52.9257 27.9158 52.967 27.9158 52.967 27.9542C53.5857 28.7991 54.3281 29.3367 55.153 29.8744C57.9989 31.8329 59.855 28.6838 60.9686 26.8021C61.711 25.5348 62.5359 24.037 63.2371 22.4625C63.2371 22.4241 63.3196 22.3857 63.3608 22.4241C64.1445 22.6161 64.8869 22.7313 65.6293 22.8081C65.6705 22.8081 65.7118 22.8465 65.7118 22.8849C65.9593 24.9971 67.7741 28.1078 70.0013 28.6838C72.2698 29.2983 74.8682 26.7637 76.3531 24.3058C76.3531 24.2674 76.3943 24.2674 76.4356 24.2674C76.4768 24.2674 76.5181 24.3058 76.5181 24.3058C77.3017 26.034 78.7041 27.6854 80.4776 26.034C82.3749 24.229 84.4784 20.1967 85.3033 18.6221C85.3033 18.5837 85.3445 18.5837 85.427 18.5837C85.4683 18.5837 85.5095 18.6221 85.5095 18.6605C86.2932 28.4534 89.3453 24.3826 92.6037 18.7757C92.6037 18.7373 92.645 18.7373 92.6862 18.7373C92.7275 18.7373 92.7687 18.7757 92.7687 18.8141C95.7384 26.3028 99.2442 20.8111 101.801 17.8156C101.843 17.7772 101.843 17.7772 101.884 17.7772C101.925 17.7772 101.966 17.8156 101.966 17.8156C105.266 24.6131 109.638 17.7772 111.164 14.0905C111.164 14.0521 111.205 14.0137 111.288 14.0521C111.329 14.0521 111.37 14.0905 111.37 14.1289C111.412 24.8435 121.022 19.8894 123.455 13.9753C124.363 11.7863 124.239 9.44368 122.3 7.71552C122.218 7.63872 122.135 7.63872 122.012 7.63872C121.929 7.67712 121.847 7.75393 121.805 7.83073C121.269 9.98133 117.805 18.6221 115.412 18.0461C112.896 17.4316 116.938 2.45424 117.557 0.610875C117.598 0.495664 117.557 0.380453 117.475 0.265243C117.392 0.150032 117.268 0.111629 117.103 0.150032C116.279 0.265243 115.536 0.45726 114.67 0.572471C114.546 0.572471 114.422 0.649278 114.381 0.764489C113.928 1.57096 113.598 2.30063 113.391 3.0687C113.391 3.1071 113.35 3.14551 113.309 3.14551C113.268 3.14551 113.226 3.1071 113.226 3.0687C112.773 1.30214 111.783 0.265243 108.813 0.99491C104.854 1.87819 104.276 6.83224 103.74 9.98133C103.657 12.5544 106.421 14.2441 109.226 11.9399C109.267 11.9015 109.308 11.9015 109.349 11.9399C109.391 11.9783 109.391 12.0167 109.391 12.0551C108.772 13.4376 106.503 19.7358 105.142 15.9339C104.895 15.2426 104.647 14.1673 104.482 13.3224C104.441 13.2072 104.359 13.092 104.235 13.0536C104.111 13.0152 103.946 13.0152 103.864 13.1304C102.461 14.2057 100.812 16.0107 99.3679 17.278C94.7897 21.1952 99.9866 4.91207 100.234 3.83677C100.275 3.68316 100.234 3.52954 100.11 3.41433C99.9866 3.29912 99.8216 3.26072 99.6567 3.29912C98.5843 3.52954 97.5944 3.75996 96.6045 3.99038C96.4395 4.02879 96.3158 4.144 96.2745 4.25921C95.5321 6.14098 94.0473 10.8646 92.7275 13.7449C90.0053 19.7358 88.4792 21.5792 89.964 14.0521C90.459 11.4791 90.9127 8.98284 91.8201 6.4098C91.9438 6.06417 92.315 5.2577 91.5313 5.33451C90.3765 5.44972 89.0154 5.83375 87.8605 6.29459C87.7368 6.333 87.6543 6.4098 87.613 6.52502C86.2107 9.32847 80.3951 26.9941 79.364 18.5837C79.364 18.4685 79.2402 18.3533 79.1165 18.3533C78.869 18.3149 78.5803 18.4685 78.3328 18.6221C77.2192 19.659 73.1359 26.5332 71.3211 25.7652C70.2488 25.3427 70.0013 23.3842 70.2488 22.3857C70.2488 22.3473 70.29 22.3473 70.3313 22.3089C76.4356 20.5807 82.1687 13.8601 78.2504 11.2102C77.5904 9.29007 76.7655 9.25166 75.1157 8.67561C71.5686 8.09956 66.5779 14.3977 65.8768 20.3887C65.8768 20.4271 65.8355 20.4655 65.753 20.4655C65.2581 20.4271 64.8044 20.3503 64.3919 20.2351C64.3507 20.2351 64.3507 20.1967 64.3507 20.1967C64.3507 20.1583 64.3507 20.1583 64.3507 20.1199C66.0005 15.7035 66.2892 11.3639 61.876 11.0566C59.8962 10.903 57.3802 14.3209 55.6892 17.2396C55.6479 17.278 55.6067 17.3164 55.5654 17.278C55.5242 17.278 55.483 17.2012 55.5242 17.1628C55.6892 16.4715 55.8954 15.8187 56.0604 15.1658C56.2666 14.3209 56.1841 13.5145 55.5654 12.8616C55.0293 12.2855 54.3693 11.8631 53.5032 11.6711C53.132 11.7095 52.9257 11.8247 52.8845 12.0167ZM107.782 9.78931C107.617 9.29007 110.545 -0.886862 111.288 4.144C111.37 8.94444 107.864 11.5943 107.782 9.78931ZM53.5032 25.0355C53.9156 23.1537 58.0402 17.5084 59.3188 15.5882C60.6799 13.5529 61.9585 13.3992 60.2262 17.5852C58.6176 21.5024 55.4417 27.1093 54.4106 26.1876C54.0394 25.9956 53.7507 25.4963 53.5032 25.0355Z" fill="#D5D8D5"/>
<path fill-rule="evenodd" clip-rule="evenodd" d="M131.761 45.6434C134.478 42.5712 137.442 37.0797 139.912 32.241C139.912 32.2026 139.912 32.2026 139.912 32.1642C138.018 28.6696 136.454 25.1366 135.631 23.6005C135.59 23.5237 135.548 23.4085 135.59 23.3317C135.631 23.2165 135.713 23.1781 135.795 23.1397C136.701 22.7557 138.389 22.3332 139.459 22.9093C140.159 23.2933 140.941 25.1366 141.847 27.4791C141.847 27.5175 141.888 27.5559 141.929 27.5559C141.971 27.5559 142.012 27.5175 142.012 27.4791C143.494 23.3317 143.947 20.5283 148.681 21.066C148.804 21.066 148.928 21.1428 148.969 21.258C149.01 21.3732 149.01 21.4884 148.969 21.6036C148.763 21.9108 148.599 22.1796 148.393 22.4868C146.952 24.6758 145.346 28.1704 143.576 31.857C143.576 31.8954 143.576 31.8954 143.576 31.9338C144.935 35.2364 146.581 38.5006 148.64 40.0366C148.722 40.1135 148.804 40.1903 148.804 40.3439C148.804 40.4591 148.763 40.5743 148.64 40.6127C146.623 41.88 144.152 39.2302 141.847 35.6204C141.847 35.582 141.806 35.582 141.765 35.582C141.724 35.582 141.682 35.6204 141.682 35.6204C138.924 40.9199 135.754 45.6818 132.131 46.2194C131.967 46.2578 131.843 46.181 131.761 46.0658C131.679 45.9122 131.637 45.7586 131.761 45.6434ZM40.2033 51.5189C42.8792 48.1395 49.1368 44.2993 56.2177 40.9967C56.3 40.9583 56.3412 40.9583 56.4235 40.9967C56.4647 41.0351 56.5058 41.1119 56.5058 41.1887C56.1765 42.84 55.8471 44.4145 55.5178 45.9506C54.5298 50.4436 54.3651 55.7432 51.0717 59.1993C49.7131 60.6586 47.5312 61.2347 45.8022 60.2362C45.7198 60.1978 45.6375 60.1978 45.5551 60.1978C45.4728 60.2362 45.3905 60.313 45.3905 60.3898C44.1143 64.9981 47.9017 67.4942 51.6068 66.9182C55.9295 66.2269 57.1234 61.1579 57.6585 57.6249C58.5231 51.9029 59.6758 45.6434 61.0343 38.9998C61.0343 38.923 61.0755 38.8846 61.1578 38.8846C62.187 38.4622 63.2162 38.0781 64.2454 37.6557C64.3277 37.6173 64.3689 37.6557 64.4513 37.6941C64.4924 37.7325 64.5336 37.8093 64.5336 37.8861C63.4221 42.8784 61.9812 50.2516 61.8165 54.9751C61.7753 55.9352 62.9692 60.1594 64.2454 58.9689C65.0688 51.5957 66.7567 44.0689 68.5681 36.2348C68.5681 36.158 68.6092 36.1196 68.6916 36.1196C73.8376 34.4299 78.4895 33.3931 81.536 33.3931C81.6183 33.3931 81.7418 33.3547 81.783 33.2779C81.8241 33.2011 81.8653 33.1243 81.8241 33.009C80.3009 29.5529 71.4498 31.3194 62.187 34.5067C62.1458 34.5451 62.0635 34.5067 62.0223 34.5067C61.9812 34.4683 61.94 34.4299 61.94 34.3915C61.8577 33.9691 61.6518 33.5851 61.3225 33.2395C60.8285 32.7402 59.6758 32.1642 58.8524 31.9338C58.7701 31.8954 58.6877 31.9338 58.6054 31.9722C58.5231 32.0106 58.4819 32.0874 58.4819 32.1642C58.1937 33.5467 57.9055 34.8524 57.6585 36.1196C57.6585 36.1964 57.6174 36.2348 57.535 36.2348C48.3134 39.8062 39.7916 44.1457 38.8036 45.605C37.4862 47.5251 37.7332 50.098 39.9563 51.6341C39.9563 51.6725 40.121 51.6341 40.2033 51.5189ZM78.6954 39.115C83.512 41.88 77.7485 50.098 72.479 50.7125C72.3555 50.7125 72.3143 50.8277 72.3143 50.9045C72.4378 51.9413 72.8084 52.863 73.5082 53.631C73.6317 53.7846 73.8376 53.8614 74.0434 53.8998C74.2492 53.8998 74.4551 53.8614 74.6197 53.7078C77.6662 51.1349 80.7949 46.4882 83.3885 43.2624C84.3766 39.1918 85.2823 35.3516 85.8174 32.2794C85.9821 31.2809 86.1056 30.5897 86.1056 29.8985C86.1056 29.7833 86.1468 29.7065 86.2291 29.6297C86.3115 29.5529 86.3938 29.5144 86.5173 29.5529C88.5345 29.7065 90.5518 30.8585 90.2636 32.9322C89.8107 34.6603 89.3167 36.4268 88.8639 38.1549C88.8639 38.1933 88.8639 38.2317 88.905 38.2701C88.9462 38.2701 88.9874 38.2701 89.0285 38.2317C90.3459 35.9276 91.9926 33.5467 93.3512 32.6634C95.1214 31.6266 96.6858 33.009 97.9208 34.7371C100.062 37.7709 98.4148 41.0351 96.9328 44.4529C95.2861 48.2547 93.1453 52.3638 89.9754 51.6341C88.4522 50.9045 87.2172 49.9444 86.188 48.9076C86.1468 48.8692 86.1468 48.8692 86.1056 48.8692C86.0644 48.8692 86.0645 48.9076 86.0233 48.946C84.8294 54.0919 83.8414 59.353 83.4297 64.8829C83.4297 65.0749 83.2239 65.2285 83.018 65.2285C81.042 65.1133 79.3129 63.9996 79.3952 61.9643C79.8893 57.8937 81.042 52.671 82.3182 47.4483C82.3182 47.4099 82.3182 47.3715 82.277 47.3331C82.2358 47.3331 82.1947 47.3331 82.1535 47.3715C80.2186 50.4052 78.0367 53.3238 75.6901 55.6663C73.0142 58.0473 70.7911 56.8568 69.1856 54.2455C63.7926 45.6434 77.0898 31.4346 80.0951 38.0397C80.1363 38.1933 80.0951 38.347 79.9304 38.3854C79.5187 38.539 79.1071 38.731 78.6954 38.9614C78.6542 38.9614 78.6542 38.9998 78.6542 39.0382C78.6542 39.0766 78.6542 39.0766 78.6954 39.115ZM73.0554 47.6019C72.9319 47.6403 72.8495 47.6403 72.7672 47.5635C72.6849 47.4867 72.6437 47.4099 72.6849 47.2947C73.4259 44.7217 75.0314 42.1104 76.9663 40.3055C77.0898 40.1903 77.2545 40.1903 77.378 40.3055C79.2717 42.072 76.1841 46.2962 73.0554 47.6019ZM91.828 37.2333C89.6872 40.3439 89.0285 42.264 87.3407 45.2209C86.6408 46.4498 86.3115 47.2563 88.2052 47.9091C89.8931 48.7155 93.063 42.3024 94.0099 38.347C94.8744 34.6219 93.804 34.6219 91.828 37.2333ZM100.062 30.7817C101.05 29.7449 102.038 29.092 103.602 28.516C103.643 28.516 103.684 28.516 103.726 28.5544C103.767 28.5928 103.767 28.6312 103.767 28.6696C102.12 32.7402 101.502 36.8109 100.35 41.0351C99.8969 43.4544 99.0324 47.4099 101.544 49.138C106.566 52.5558 110.889 45.3362 112.412 41.9184C113.359 39.1918 113.112 35.966 109.283 35.6588C109.242 35.6588 109.201 35.6204 109.201 35.582C109.201 35.5436 109.201 35.5052 109.242 35.4668C113.194 33.2011 117.105 22.7557 110.189 23.0629C110.23 23.0245 110.23 22.9861 110.271 22.9477C110.354 22.8325 110.354 22.6789 110.312 22.5637C110.23 22.4484 110.107 22.3716 109.942 22.3716C108.336 22.41 107.019 22.9861 106.196 24.3686C104.302 24.9062 96.6446 29.092 99.6911 30.8201C99.7322 30.9737 99.9381 30.9353 100.062 30.7817ZM107.225 29.8601C108.172 26.7111 110.559 24.6758 110.477 28.7464C110.395 30.8969 108.954 34.0843 105.866 35.7356C105.825 35.7356 105.784 35.7356 105.743 35.7356C105.702 35.6972 105.702 35.6588 105.702 35.6204C106.278 33.8155 106.69 31.7418 107.225 29.8601ZM105.249 38.6542C106.237 37.9629 106.895 37.4637 108.625 37.4637C111.465 37.4637 104.919 48.1395 103.767 47.9859C102.984 47.9091 103.931 43.6849 105.249 38.6542ZM116.817 27.1719C115.664 33.0474 114.1 37.1949 113.235 43.6465C113.647 45.6434 116.776 46.949 118.999 46.565C119.946 46.5266 121.263 45.6434 122.539 44.2993C125.586 41.1119 128.591 35.4284 126.368 32.625C126.327 32.5866 126.327 32.5482 126.368 32.5098C127.356 31.8186 128.385 31.0121 129.373 30.0905C129.414 30.0521 129.456 30.0521 129.497 30.0905C129.538 30.0905 129.538 30.1673 129.538 30.2057C128.756 33.8539 127.932 37.3485 127.027 41.0735C126.491 43.2624 129.95 45.3362 132.008 43.8769C132.09 43.8385 132.09 43.7233 132.049 43.6465C130.155 40.2671 133.531 30.2825 134.354 26.5191C134.56 25.559 134.149 24.599 133.243 24.1381C132.667 23.8309 132.049 23.6389 131.39 23.4853C131.267 23.4469 131.143 23.4853 131.061 23.5237C130.938 23.6005 130.896 23.6773 130.855 23.7925V23.8309C127.521 28.0936 123.486 31.1657 119.369 35.006C119.287 35.0828 119.205 35.0828 119.122 35.0444C119.04 35.006 118.999 34.9292 118.999 34.8524C119.575 32.2794 121.14 28.1704 119.287 27.3639C118.587 27.0567 117.846 26.8647 117.023 26.9031C116.982 26.9031 116.858 27.0183 116.817 27.1719ZM117.599 40.5359C118.546 39.0766 119.658 38.1165 120.893 36.9261C123.239 34.6987 123.857 34.5835 122.416 37.9245C121.922 39.0766 118.711 44.3377 117.352 44.2225C116.488 44.1457 116.405 42.3792 117.599 40.5359Z" fill="#D5D8D5"/>
<path fill-rule="evenodd" clip-rule="evenodd" d="M87.4302 63.0025C109.372 56.1354 127.616 51.5186 150.513 49.0357C151.012 48.8029 151.261 48.4925 150.597 48.0269C126.494 47.6002 110.245 52.2946 87.1809 58.3857C86.8068 58.502 86.5159 58.7736 86.4744 59.1228C86.3082 60.1703 86.0588 61.179 86.1419 62.1489C86.1835 62.4593 86.3082 62.6921 86.5991 62.8473C86.8068 63.0413 87.0977 63.0801 87.4302 63.0025ZM57.0106 72.43C56.9275 70.8394 57.3431 69.4815 57.8833 68.1624C58.1742 67.4641 58.7144 66.9985 59.4209 66.7657C65.7791 64.6319 69.9348 63.274 76.293 61.1402C76.4176 61.1014 76.5423 61.1014 76.667 61.179C76.7917 61.2566 76.8748 61.373 76.8332 61.4894C76.5423 62.6533 76.5423 63.9336 76.8332 65.2139C76.8748 65.3691 76.7501 65.5242 76.5839 65.6018C69.8517 68.046 64.948 69.6755 58.2989 72.5464C57.3015 73.012 57.3015 73.3224 57.0106 72.43Z" fill="#D5D8D5"/>
<path opacity="0.25" d="M33.1506 51.6506C21.1933 58.5542 5.90356 54.4573 -1 42.5" stroke="#D5D8D5"/>
</g>
<defs>
<clipPath id="clip0">
<rect width="151" height="77" fill="white"/>
</clipPath>
</defs>
</svg>
