<svg xmlns="http://www.w3.org/2000/svg" width="55" height="40" viewBox="0 0 55 40"><g><g><g><path fill="#fff" d="M0 0h55v40H0z"/></g><g transform="rotate(90 27.5 20)"><path fill="#ececec" d="M7.5-7.5h33.191L47.5-.73V47.5h-40z"/></g><g><path fill="#267547" d="M0 0h55v6H0z"/></g><g><path fill="#267547" d="M4.858 35a.807.807 0 0 1-.61-.261.913.913 0 0 1-.248-.654c0-.267.083-.482.248-.644a.822.822 0 0 1 .61-.252c.241 0 .445.084.61.252.165.162.248.377.248.644 0 .262-.083.48-.248.654a.807.807 0 0 1-.61.261zm4.817-.075l-1.044-1.54-1.079 1.54H6.05l1.83-2.529-1.768-2.492h1.548l1.008 1.465L9.7 29.904h1.468l-1.768 2.455 1.84 2.566zM11.91 28h1.38v6.925h-1.38zm4.959 7c-.507 0-.964-.109-1.37-.327a2.478 2.478 0 0 1-.947-.924 2.642 2.642 0 0 1-.336-1.334c0-.498.112-.943.336-1.335a2.41 2.41 0 0 1 .946-.915 2.794 2.794 0 0 1 1.37-.336c.502 0 .938.112 1.31.336.377.218.651.532.822.943l-1.07.607c-.248-.46-.604-.691-1.07-.691-.36 0-.657.124-.893.373-.236.25-.354.588-.354 1.018 0 .429.118.768.354 1.017.236.249.533.373.893.373.472 0 .828-.23 1.07-.69l1.07.616c-.171.398-.445.709-.822.933-.372.224-.808.336-1.31.336z"/></g><g opacity=".5"><path fill="#c4c4c4" d="M48 33h7l-7 7z"/></g></g></g></svg>